<svg width="25" height="25" fill="none" xmlns="http://www.w3.org/2000/svg"><path d="M22.43 6.23c.016.274.016.547.016.82 0 8.34-5.155 17.95-14.578 17.95-2.903 0-5.6-1.035-7.868-2.832.412.059.809.078 1.237.078 2.396 0 4.6-.996 6.361-2.695-2.252-.059-4.14-1.875-4.79-4.375.317.058.634.097.967.097.46 0 .92-.078 1.349-.214-2.348-.586-4.109-3.125-4.109-6.192V8.79a4.457 4.457 0 002.316.8c-1.38-1.132-2.284-3.066-2.284-5.253 0-1.172.254-2.246.698-3.184C4.267 4.98 8.058 7.48 12.31 7.754a8.709 8.709 0 01-.127-1.445C12.183 2.832 14.467 0 17.306 0c1.476 0 2.808.762 3.744 1.992A9.03 9.03 0 0024.302.47c-.38 1.465-1.19 2.695-2.253 3.476C23.081 3.81 24.08 3.457 25 2.97c-.698 1.25-1.57 2.363-2.57 3.261z" fill="#0C1149"/></svg>