<svg width="25" height="25" fill="none" xmlns="http://www.w3.org/2000/svg"><path d="M12.503 6.09a6.399 6.399 0 00-6.408 6.41 6.399 6.399 0 006.408 6.41 6.399 6.399 0 006.408-6.41 6.399 6.399 0 00-6.408-6.41zm0 10.577A4.174 4.174 0 018.337 12.5a4.17 4.17 0 014.166-4.167 4.17 4.17 0 014.166 4.167 4.174 4.174 0 01-4.166 4.167zm8.165-10.839c0 .831-.67 1.495-1.495 1.495a1.495 1.495 0 111.495-1.495zm4.244 1.517c-.095-2.002-.552-3.776-2.019-5.238C21.432.646 19.658.188 17.656.087c-2.063-.116-8.249-.116-10.312 0-1.997.096-3.77.553-5.237 2.015C.64 3.563.188 5.337.087 7.34c-.116 2.064-.116 8.25 0 10.314.096 2.003.553 3.777 2.02 5.239 1.467 1.461 3.235 1.919 5.237 2.02 2.063.116 8.249.116 10.312 0 2.002-.096 3.776-.553 5.237-2.02 1.461-1.462 1.919-3.236 2.02-5.239.116-2.063.116-8.244 0-10.309zM22.246 19.87a4.218 4.218 0 01-2.376 2.377c-1.645.652-5.549.502-7.367.502-1.818 0-5.728.145-7.368-.502a4.218 4.218 0 01-2.376-2.377c-.652-1.645-.502-5.55-.502-7.369s-.145-5.73.502-7.37a4.218 4.218 0 012.376-2.376c1.646-.652 5.55-.502 7.368-.502 1.818 0 5.728-.145 7.367.502a4.218 4.218 0 012.376 2.377c.653 1.645.502 5.55.502 7.369s.15 5.73-.502 7.37z" fill="#0C1149"/></svg>