<svg xmlns="http://www.w3.org/2000/svg" viewBox="0 0 100 100"><path d="M50 100.6c-27.6 0-50-22.4-50-50S22.4.6 50 .6s50 22.4 50 50-22.4 50-50 50zm0-95.1C25.1 5.5 4.9 25.7 4.9 50.6S25.1 95.7 50 95.7s45.1-20.2 45.1-45.1S74.9 5.5 50 5.5zm2.1 15.1l-5 1.8-3.1 3.3.9 3.9 3.7.6 1.8 3.7 11.3-1.8 4.8 2.9-9.9 5.7-5.4-.6-5.9 1-5.8 8.3-8.2 1.2-1.3 7.2 3.5.8-1 4.5-8.2-1.6-7.4 1.6-1.7 4.2 1.3 8.8 4.5 2.1h7.4l4.9-.4 1.7-4 7.8-10 5.1 1 5-4.5 1 3.5 12.6 8.4-1.5 2.1-5.5-.2s1.4 2.4 2 3c.6.7 2.7.9 3.5.9 1.1 0 4.1-1.7 4.1-1.7v-4.9l1.9-.8-1.4-1.5-8.5-4.7-2.2-6.4h6.9l2.3 2.3 6 5.1.2 6.2s6.4-.2 7.8-1.7c2.1-2 2.3-11.3 2.3-11.3s2.2-11.9 1.4-16.9c-1.6-8.2-11.7-24.4-11.7-24.4s-6.4-4.6-8.9-4.4c-3.9 0-13.1 7.7-13.1 7.7z" fill="#6f8caa"/></svg>