<svg width="50" height="50" fill="none" xmlns="http://www.w3.org/2000/svg"><path d="M25 50C11.2 50 0 38.8 0 25S11.2 0 25 0s25 11.2 25 25-11.2 25-25 25zm0-47.55C12.55 2.45 2.45 12.55 2.45 25c0 12.45 10.1 22.55 22.55 22.55 12.45 0 22.55-10.1 22.55-22.55 0-12.45-10.1-22.55-22.55-22.55zM26.05 10l-2.5.9L22 12.55l.45 1.95 1.85.3.9 1.85 5.65-.9 2.4 1.45-4.95 2.85-2.7-.3-2.95.5-2.9 4.15-4.1.6-.65 3.6 1.75.4-.5 2.25-4.1-.8-3.7.8-.85 2.1.65 4.4 2.25 1.05h3.7l2.45-.2.85-2 3.9-5 2.55.5 2.5-2.25.5 1.75 6.3 4.2-.75 1.05-2.75-.1s.7 1.2 1 1.5c.3.35 1.35.45 1.75.45.55 0 2.05-.85 2.05-.85V35.4l.95-.4-.7-.75-4.25-2.35-1.1-3.2h3.45l1.15 1.15 3 2.55.1 3.1s3.2-.1 3.9-.85c1.05-1 1.15-5.65 1.15-5.65s1.1-5.95.7-8.45c-.8-4.1-5.85-12.2-5.85-12.2s-3.2-2.3-4.45-2.2c-1.95 0-6.55 3.85-6.55 3.85z" fill="#FF4747"/></svg>